<svg width="113" height="41" viewBox="0 0 113 41" fill="none" xmlns="http://www.w3.org/2000/svg">
<path d="M9.18184 32.1217C8.40463 32.1217 7.50469 32.0297 6.48204 31.8456C5.47984 31.6615 4.59013 31.3138 3.81292 30.8025L3.90495 31.8763H2.30962L2.46301 25.3415H3.65952C3.67997 26.5892 3.93563 27.6221 4.42651 28.4402C4.93783 29.2583 5.62301 29.8617 6.48204 30.2503C7.34107 30.6389 8.31259 30.8332 9.3966 30.8332C10.1943 30.8332 10.9408 30.69 11.6362 30.4037C12.3316 30.1173 12.9043 29.6878 13.3543 29.1151C13.8042 28.5424 14.0497 27.847 14.0906 27.0289C14.1519 26.0063 13.9065 25.1677 13.3543 24.5132C12.8225 23.8382 12.1271 23.2656 11.2681 22.7951C10.409 22.3247 9.49886 21.8645 8.53757 21.4146C7.59673 20.9646 6.6968 20.4839 5.83777 19.9726C4.97874 19.4408 4.28334 18.7863 3.75156 18.0091C3.24023 17.2319 3.01525 16.2604 3.07661 15.0946C3.11751 14.5628 3.24023 13.9901 3.44476 13.3765C3.66974 12.7629 4.02767 12.1698 4.51855 11.5971C5.00942 11.0244 5.66392 10.5642 6.48204 10.2165C7.30016 9.84836 8.33304 9.66428 9.58068 9.66428C10.3579 9.66428 11.2169 9.77677 12.1578 10.0018C13.1191 10.2063 14.0088 10.6153 14.8269 11.2289L14.7655 9.90972H16.3302L15.9927 16.6592H14.8882C14.8882 15.6775 14.7042 14.7469 14.336 13.8674C13.9679 12.9879 13.4054 12.272 12.6486 11.7198C11.8919 11.1676 10.9101 10.8915 9.7034 10.8915C8.43531 10.8915 7.43311 11.2596 6.6968 11.9959C5.96049 12.7118 5.57188 13.5504 5.53097 14.5117C5.49007 15.3093 5.66392 15.9945 6.05253 16.5672C6.46159 17.1194 7.00359 17.6103 7.67854 18.0398C8.35349 18.4489 9.0898 18.8375 9.88747 19.2056C10.6851 19.5942 11.493 19.9931 12.3112 20.4021C13.1293 20.7907 13.8758 21.2509 14.5508 21.7827C15.2462 22.294 15.7882 22.9179 16.1768 23.6542C16.5654 24.3905 16.729 25.2802 16.6677 26.3233C16.6268 27.4482 16.2995 28.4504 15.6859 29.3299C15.0723 30.2094 14.2133 30.8945 13.1088 31.3854C12.0248 31.8763 10.7158 32.1217 9.18184 32.1217ZM29.1054 31.9683C28.3281 31.9683 27.6736 31.6513 27.1419 31.0173C26.6305 30.3832 26.109 29.3606 25.5772 27.9493C25.1886 26.9267 24.8409 26.1903 24.5341 25.7404C24.2273 25.2904 23.7773 25.0552 23.1842 25.0347C23.041 25.0347 22.9081 25.045 22.7854 25.0654C22.6626 25.0654 22.5297 25.0654 22.3865 25.0654C22.1615 25.904 21.9775 26.7528 21.8343 27.6118C21.7116 28.4504 21.6502 29.2481 21.6502 30.0048C21.6502 30.3116 21.6502 30.598 21.6502 30.8639C21.6707 31.1093 21.6911 31.365 21.7116 31.6309H19.1958C19.1754 31.4877 19.1652 31.365 19.1652 31.2627C19.1652 31.14 19.1652 30.9968 19.1652 30.8332C19.1652 30.2605 19.1958 29.4117 19.2572 28.2868C19.3186 27.1414 19.4004 25.8426 19.5026 24.3905C19.6049 22.9383 19.7174 21.4452 19.8401 19.9113C19.9628 18.3773 20.0958 16.9251 20.239 15.5548C20.4026 14.164 20.556 12.9879 20.6991 12.0266C20.781 11.4948 20.8321 11.1574 20.8525 11.0142C20.8935 10.871 20.9344 10.6665 20.9753 10.4006C20.6276 10.421 20.2696 10.4415 19.9015 10.4619C19.5333 10.4824 19.1754 10.5029 18.8277 10.5233L18.9504 9.29612C19.8503 9.29612 20.5458 9.25522 21.0366 9.1734C21.548 9.09159 21.9263 8.98933 22.1718 8.86661C22.4172 8.74389 22.6217 8.61095 22.7854 8.46777H23.6751C23.5728 8.9791 23.4705 9.55179 23.3683 10.1858C23.2865 10.8199 23.2046 11.4437 23.1228 12.0573C23.041 12.6709 22.9694 13.2129 22.9081 13.6833C22.724 15.115 22.5501 16.6081 22.3865 18.1625C22.2434 19.717 22.1206 21.2612 22.0184 22.7951H22.1104C22.724 20.9748 23.3478 19.5738 23.9819 18.592C24.6364 17.6103 25.3113 16.9251 26.0067 16.5365C26.7021 16.1479 27.4078 15.9536 28.1236 15.9536C28.8395 15.9536 29.4121 16.1172 29.8417 16.4445C30.2712 16.7513 30.5882 17.1603 30.7927 17.6716C30.9973 18.183 31.0995 18.7148 31.0995 19.267C31.0995 19.9828 30.8848 20.7294 30.4553 21.5066C30.0257 22.2838 29.3712 22.9792 28.4918 23.5928C27.6327 24.1859 26.5283 24.6052 25.1784 24.8507V24.8814C25.8942 24.9018 26.4362 25.0757 26.8044 25.4029C27.193 25.7097 27.5509 26.2517 27.8782 27.0289C28.1032 27.4993 28.3179 27.98 28.5224 28.4709C28.7474 28.9617 28.9826 29.3708 29.2281 29.698C29.4735 30.0253 29.7394 30.2094 30.0257 30.2503C30.3734 30.2707 30.67 30.148 30.9154 29.8821C31.1609 29.6162 31.3756 29.1049 31.5597 28.3481L32.4187 28.5015C32.296 29.0742 32.0915 29.6265 31.8052 30.1582C31.5393 30.69 31.1813 31.1298 30.7314 31.4775C30.2814 31.8047 29.7394 31.9683 29.1054 31.9683ZM22.632 24.1757C24.575 24.1757 26.0578 23.7564 27.0805 22.9179C28.1032 22.0793 28.6145 20.8828 28.6145 19.3283C28.6145 19.0625 28.5838 18.7761 28.5224 18.4693C28.4611 18.1625 28.3281 17.8966 28.1236 17.6716C27.9191 17.4467 27.6021 17.3546 27.1725 17.3955C26.6203 17.4364 26.0578 17.7739 25.4852 18.408C24.9329 19.042 24.4114 19.8704 23.9205 20.893C23.4296 21.8952 23.0001 22.9894 22.632 24.1757ZM36.4234 15.9536C37.2824 15.9536 37.9267 16.2502 38.3562 16.8433C38.7857 17.416 39.0005 18.183 39.0005 19.1443C39.0005 19.7579 38.9391 20.4635 38.8164 21.2612C38.7141 22.0384 38.5812 22.877 38.4176 23.7769C38.2539 24.6768 38.1108 25.587 37.9881 26.5074C37.8858 27.4073 37.8347 28.2868 37.8347 29.1458C37.8347 29.5549 37.9062 29.8719 38.0494 30.0969C38.213 30.3219 38.4585 30.4344 38.7857 30.4344C39.1334 30.4344 39.5118 30.2094 39.9209 29.7594C40.3504 29.3094 40.7185 28.5424 41.0253 27.4584L41.8844 27.6425C41.8025 28.072 41.6594 28.5424 41.4548 29.0538C41.2708 29.5446 41.0253 30.0151 40.7185 30.465C40.4117 30.8945 40.0334 31.2525 39.5834 31.5388C39.1539 31.8252 38.6528 31.9683 38.0801 31.9683C37.1392 31.9683 36.4438 31.7229 35.9939 31.232C35.5439 30.7412 35.3189 30.0253 35.3189 29.0845C35.3189 28.1845 35.3803 27.3153 35.503 26.4767C35.6257 25.6177 35.7587 24.7791 35.9018 23.961C36.0655 23.1224 36.2086 22.2838 36.3314 21.4452C36.4541 20.6067 36.5154 19.7476 36.5154 18.8682C36.5154 18.6023 36.4541 18.3057 36.3314 17.9784C36.2291 17.6512 36.0041 17.4876 35.6564 17.4876C35.3292 17.4876 34.9508 17.7126 34.5213 18.1625C34.0917 18.6125 33.7236 19.3795 33.4168 20.4635L32.5578 20.2794C32.6191 19.9113 32.7418 19.492 32.9259 19.0216C33.11 18.5307 33.3554 18.05 33.6622 17.5796C33.9895 17.1092 34.3781 16.7206 34.8281 16.4138C35.278 16.107 35.8098 15.9536 36.4234 15.9536ZM38.1721 9.3268C38.6425 9.3268 39.0312 9.49043 39.338 9.81768C39.6447 10.1245 39.7981 10.5438 39.7981 11.0755C39.7981 11.5869 39.6345 12.0062 39.3073 12.3334C38.98 12.6402 38.5914 12.7936 38.1414 12.7936C37.6915 12.7936 37.3029 12.6402 36.9756 12.3334C36.6688 12.0062 36.5154 11.5869 36.5154 11.0755C36.5154 10.5438 36.6791 10.1245 37.0063 9.81768C37.3336 9.49043 37.7222 9.3268 38.1721 9.3268ZM47.9349 8.46777C47.8736 8.9791 47.7815 9.55179 47.6588 10.1858C47.5566 10.8199 47.4543 11.4437 47.352 12.0573C47.2702 12.6709 47.1986 13.2129 47.1373 13.6833C47.0146 14.5423 46.8918 15.5241 46.7691 16.6285C46.6464 17.7126 46.5237 18.8477 46.401 20.034C46.2782 21.1998 46.1658 22.3452 46.0635 23.4701C45.9817 24.595 45.9101 25.6279 45.8487 26.5687C45.7874 27.4891 45.7567 28.2459 45.7567 28.839C45.7567 29.2276 45.7976 29.5958 45.8794 29.9435C45.9612 30.2707 46.1964 30.4344 46.585 30.4344C46.9327 30.4344 47.3111 30.2196 47.7202 29.7901C48.1497 29.3401 48.5179 28.5629 48.8247 27.4584L49.6837 27.6732C49.6223 28.0209 49.4894 28.4402 49.2848 28.9311C49.1008 29.4219 48.8451 29.9026 48.5179 30.373C48.1906 30.823 47.7918 31.2013 47.3214 31.5081C46.8714 31.8149 46.3396 31.9683 45.726 31.9683C44.8874 31.9683 44.2738 31.7638 43.8852 31.3547C43.4966 30.9252 43.2921 30.3014 43.2716 29.4833C43.2512 28.972 43.2716 28.2152 43.333 27.213C43.4148 26.2108 43.5069 25.0757 43.6091 23.8076C43.7318 22.519 43.8648 21.1793 44.008 19.7885C44.1511 18.3773 44.3045 17.0069 44.4682 15.6775C44.6318 14.348 44.7852 13.1413 44.9283 12.0573C45.0306 11.5051 45.092 11.1471 45.1124 10.9835C45.1533 10.7994 45.184 10.6051 45.2045 10.4006C44.8363 10.421 44.4682 10.4415 44.1 10.4619C43.7523 10.4824 43.3944 10.5029 43.0262 10.5233L43.1796 9.29612C44.0795 9.29612 44.7749 9.25522 45.2658 9.1734C45.7771 9.09159 46.1658 8.98933 46.4316 8.86661C46.6975 8.74389 46.9123 8.61095 47.0759 8.46777H47.9349ZM55.7031 8.46777C55.6418 8.9791 55.5497 9.55179 55.427 10.1858C55.3247 10.8199 55.2225 11.4437 55.1202 12.0573C55.0384 12.6709 54.9668 13.2129 54.9054 13.6833C54.7827 14.5423 54.66 15.5241 54.5373 16.6285C54.4146 17.7126 54.2918 18.8477 54.1691 20.034C54.0464 21.1998 53.9339 22.3452 53.8317 23.4701C53.7498 24.595 53.6783 25.6279 53.6169 26.5687C53.5555 27.4891 53.5249 28.2459 53.5249 28.839C53.5249 29.2276 53.5658 29.5958 53.6476 29.9435C53.7294 30.2707 53.9646 30.4344 54.3532 30.4344C54.7009 30.4344 55.0793 30.2196 55.4884 29.7901C55.9179 29.3401 56.286 28.5629 56.5928 27.4584L57.4518 27.6732C57.3905 28.0209 57.2575 28.4402 57.053 28.9311C56.8689 29.4219 56.6133 29.9026 56.286 30.373C55.9588 30.823 55.5599 31.2013 55.0895 31.5081C54.6396 31.8149 54.1078 31.9683 53.4942 31.9683C52.6556 31.9683 52.042 31.7638 51.6534 31.3547C51.2648 30.9252 51.0603 30.3014 51.0398 29.4833C51.0194 28.972 51.0398 28.2152 51.1012 27.213C51.183 26.2108 51.275 25.0757 51.3773 23.8076C51.5 22.519 51.633 21.1793 51.7761 19.7885C51.9193 18.3773 52.0727 17.0069 52.2363 15.6775C52.3999 14.348 52.5533 13.1413 52.6965 12.0573C52.7988 11.5051 52.8601 11.1471 52.8806 10.9835C52.9215 10.7994 52.9522 10.6051 52.9726 10.4006C52.6045 10.421 52.2363 10.4415 51.8682 10.4619C51.5205 10.4824 51.1625 10.5029 50.7944 10.5233L50.9478 9.29612C51.8477 9.29612 52.5431 9.25522 53.034 9.1734C53.5453 9.09159 53.9339 8.98933 54.1998 8.86661C54.4657 8.74389 54.6805 8.61095 54.8441 8.46777H55.7031ZM65.5575 15.9536C66.2938 15.9536 66.9892 16.0661 67.6437 16.2911C68.2982 16.5161 68.83 16.8842 69.239 17.3955C69.6481 17.9069 69.8526 18.6023 69.8526 19.4817C69.8526 20.3203 69.5663 21.0464 68.9936 21.66C68.4209 22.2736 67.6744 22.7849 66.754 23.194C65.8336 23.5826 64.8519 23.8996 63.8088 24.145C62.7656 24.3905 61.7634 24.5643 60.8022 24.6666C60.8022 25.9347 60.9249 26.9982 61.1703 27.8573C61.4362 28.7163 61.8248 29.3606 62.3361 29.7901C62.8475 30.2196 63.502 30.4344 64.2996 30.4344C64.8928 30.4344 65.4859 30.3014 66.079 30.0355C66.6926 29.7696 67.2755 29.3708 67.8278 28.839C68.38 28.2868 68.8811 27.5812 69.3311 26.7221L70.3435 27.305C69.7708 28.3686 69.1572 29.2481 68.5027 29.9435C67.8482 30.6389 67.1324 31.1502 66.3552 31.4775C65.5779 31.8047 64.7189 31.9683 63.7781 31.9683C61.835 31.9683 60.4033 31.365 59.4829 30.1582C58.5625 28.9311 58.1023 27.3255 58.1023 25.3415C58.1023 24.1553 58.2557 22.9997 58.5625 21.8748C58.8693 20.7498 59.3295 19.7476 59.9431 18.8682C60.5567 17.9682 61.3339 17.2626 62.2748 16.7513C63.2156 16.2195 64.3099 15.9536 65.5575 15.9536ZM65.128 16.9967C64.1871 16.9967 63.4099 17.3137 62.7963 17.9478C62.2032 18.5818 61.743 19.3999 61.4157 20.4021C61.1089 21.4043 60.9146 22.4577 60.8328 23.5621C61.9168 23.419 62.9497 23.1633 63.9315 22.7951C64.9132 22.427 65.7211 21.9566 66.3552 21.3839C66.9892 20.7907 67.3062 20.1056 67.3062 19.3283C67.3062 18.6738 67.1221 18.1216 66.754 17.6716C66.4063 17.2217 65.8643 16.9967 65.128 16.9967ZM75.9138 31.9683C74.9729 31.9683 74.1957 31.7127 73.5821 31.2013C72.9685 30.6696 72.5083 29.9639 72.2015 29.0845C71.9152 28.1845 71.772 27.2028 71.772 26.1392C71.772 24.1348 72.0993 22.3759 72.7538 20.8623C73.4287 19.3283 74.4309 18.1318 75.7604 17.2728C77.0898 16.3933 78.7363 15.9536 80.6998 15.9536C81.0066 15.9536 81.3031 15.9638 81.5895 15.9843C81.8758 16.0047 82.1519 16.0354 82.4178 16.0763C82.4996 15.34 82.5815 14.6037 82.6633 13.8674C82.7655 13.1106 82.8576 12.4254 82.9394 11.8118C83.0417 11.1778 83.1337 10.7074 83.2155 10.4006C82.8473 10.421 82.469 10.4415 82.0804 10.4619C81.7122 10.4824 81.344 10.5029 80.9759 10.5233L81.0986 9.29612C81.9985 9.29612 82.6939 9.25522 83.1848 9.1734C83.6961 9.09159 84.0848 8.98933 84.3506 8.86661C84.6165 8.74389 84.8313 8.61095 84.9949 8.46777H85.8846C85.7005 9.57224 85.5062 10.9221 85.3017 12.5175C85.1176 14.0924 84.8824 16.0968 84.5961 18.5307C84.4529 19.8397 84.3097 21.1487 84.1666 22.4577C84.0439 23.7462 83.9314 24.9427 83.8291 26.0472C83.7473 27.1516 83.7064 28.072 83.7064 28.8083C83.7064 29.1969 83.7473 29.5651 83.8291 29.9128C83.9109 30.2605 84.1461 30.4344 84.5347 30.4344C84.8824 30.4344 85.2608 30.2094 85.6699 29.7594C86.0789 29.3094 86.4369 28.5424 86.7437 27.4584L87.6334 27.6425C87.572 28.0107 87.4391 28.4402 87.2345 28.9311C87.0505 29.4015 86.7948 29.8719 86.4675 30.3423C86.1403 30.8127 85.7415 31.2013 85.271 31.5081C84.8006 31.8149 84.2586 31.9683 83.645 31.9683C82.8269 31.9683 82.2235 31.7127 81.8349 31.2013C81.4668 30.69 81.2827 30.0253 81.2827 29.2072C81.2827 28.614 81.3236 28.0004 81.4054 27.3664C81.4872 26.7119 81.5997 26.0063 81.7429 25.2495H81.6508C81.0986 27.1107 80.485 28.5322 79.8101 29.514C79.1556 30.4753 78.4908 31.1298 77.8159 31.4775C77.1614 31.8047 76.5274 31.9683 75.9138 31.9683ZM76.558 30.5264C77.2125 30.5264 77.8568 30.1582 78.4908 29.4219C79.1453 28.6856 79.7385 27.7243 80.2703 26.538C80.802 25.3518 81.2111 24.0939 81.4974 22.7645C81.6611 22.0486 81.794 21.2509 81.8963 20.3715C82.019 19.492 82.1417 18.4898 82.2644 17.3649C81.9372 17.2421 81.5895 17.1603 81.2213 17.1194C80.8736 17.0785 80.5259 17.0581 80.1782 17.0581C79.3192 17.0581 78.5624 17.2319 77.9079 17.5796C77.2739 17.9273 76.7319 18.3977 76.2819 18.9909C75.8319 19.584 75.4638 20.2487 75.1775 20.985C74.9116 21.7214 74.7173 22.4883 74.5945 23.286C74.4718 24.0837 74.4105 24.8609 74.4105 25.6177C74.4105 27.0085 74.5639 28.1743 74.8707 29.1151C75.1979 30.056 75.7604 30.5264 76.558 30.5264Z" fill="black"/>
<circle cx="100.473" cy="31.937" r="8.11085" fill="url(#paint0_linear_281_450)"/>
<circle cx="100.473" cy="31.937" r="8.11085" fill="#6FEDB2"/>
<defs>
<linearGradient id="paint0_linear_281_450" x1="92.3618" y1="31.937" x2="110.109" y2="31.937" gradientUnits="userSpaceOnUse">
<stop stop-color="#EBFEDA"/>
<stop offset="1" stop-color="#AFEBF4"/>
</linearGradient>
</defs>
</svg>
