<svg width="49" height="49" viewBox="0 0 49 49" fill="none" xmlns="http://www.w3.org/2000/svg">
<rect x="0.833328" y="0.5" width="48" height="48" rx="24" fill="#FFF4F2"/>
<path d="M24.8333 27.125C27.0341 27.125 28.8177 25.3625 28.8177 23.1875V17.9375C28.8177 15.7625 27.0341 14 24.8333 14C22.6325 14 20.849 15.7625 20.849 17.9375V23.1875C20.849 25.3625 22.6325 27.125 24.8333 27.125ZM32.5677 23.1406C32.5677 23.0375 32.4833 22.9531 32.3802 22.9531H30.974C30.8708 22.9531 30.7865 23.0375 30.7865 23.1406C30.7865 26.4289 28.1216 29.0938 24.8333 29.0938C21.545 29.0938 18.8802 26.4289 18.8802 23.1406C18.8802 23.0375 18.7958 22.9531 18.6927 22.9531H17.2865C17.1833 22.9531 17.099 23.0375 17.099 23.1406C17.099 27.0945 20.0661 30.357 23.8958 30.8187V33.2188H20.4904C20.1693 33.2188 19.9115 33.5539 19.9115 33.9688V34.8125C19.9115 34.9156 19.9771 35 20.0568 35H29.6099C29.6896 35 29.7552 34.9156 29.7552 34.8125V33.9688C29.7552 33.5539 29.4974 33.2188 29.1763 33.2188H25.6771V30.8305C29.5513 30.4086 32.5677 27.1273 32.5677 23.1406Z" fill="#FF6652"/>
</svg>
