<svg width="24" height="24" viewBox="0 0 24 24" fill="none" xmlns="http://www.w3.org/2000/svg">
<path d="M1.11426 20.0457V13.84L6.5434 11.5137L11.9725 13.8417V20.0457L6.5434 22.3702L1.11426 20.0457Z" stroke="#52C08D" stroke-width="1.5" stroke-linecap="round" stroke-linejoin="round"/>
<path d="M1.11426 13.8287L6.5434 16.155L11.9725 13.8287M6.5434 5.35156L11.9708 7.67956L17.4 5.35328" stroke="#52C08D" stroke-width="1.5" stroke-linecap="round" stroke-linejoin="round"/>
<path d="M11.9709 13.8281L17.4001 16.1544L22.8292 13.8281" stroke="#52C08D" stroke-width="1.5" stroke-linecap="round" stroke-linejoin="round"/>
<path d="M6.54346 16.1579V22.3722M17.4035 16.1579V22.3722M11.9709 7.67909V13.8917M6.54689 11.5105V5.3048L11.9743 2.97852L17.4035 5.3048V11.5105L11.9743 13.8368L6.54689 11.5105ZM11.9709 20.0459V13.8402L17.4 11.5139L22.8292 13.8419V20.0459L17.4 22.3705L11.9709 20.0459Z" stroke="#52C08D" stroke-width="1.5" stroke-linecap="round" stroke-linejoin="round"/>
</svg>
