<svg width="24" height="24" viewBox="0 0 24 24" fill="none" xmlns="http://www.w3.org/2000/svg">
<g clip-path="url(#clip0_290_452)">
<path d="M19.4845 12.5453C19.9126 10.7989 19.8329 8.96643 19.2548 7.26371C18.6767 5.56099 17.6243 4.05883 16.2213 2.93402C14.8184 1.80921 13.1233 1.10855 11.3356 0.914501C9.54797 0.720453 7.74205 1.04109 6.13043 1.83868C4.51882 2.63627 3.16856 3.87762 2.23858 5.41664C1.30859 6.95566 0.837575 8.72831 0.88096 10.526C0.924345 12.3236 1.48033 14.0715 2.48347 15.5639C3.48662 17.0562 4.89518 18.231 6.5434 18.9499M0.877686 10.2962H19.7537" stroke="#52C08D" stroke-width="1.25" stroke-linecap="round" stroke-linejoin="round"/>
<path d="M7.51209 14.6523C7.03827 13.2449 6.75911 11.7793 6.68237 10.2963C6.86082 6.84451 8.13238 3.53892 10.3132 0.857422C12.4935 3.53914 13.7644 6.84471 13.9424 10.2963C13.9115 10.9017 13.8468 11.5049 13.7487 12.1031M16.2138 14.0197L23.1224 17.0128L16.2138 20.006L9.30866 17.0128L16.2172 14.0197H16.2138Z" stroke="#52C08D" stroke-width="1.25" stroke-linecap="round" stroke-linejoin="round"/>
<path d="M12.4406 18.3782L12.4475 21.6354C12.4475 21.6354 13.5875 23.144 16.2137 23.144C18.84 23.144 19.9852 21.6354 19.9852 21.6354V18.3782M9.30688 22.2782V17.0137" stroke="#52C08D" stroke-width="1.25" stroke-linecap="round" stroke-linejoin="round"/>
</g>
<defs>
<clipPath id="clip0_290_452">
<rect width="24" height="24" fill="white"/>
</clipPath>
</defs>
</svg>
