<svg width="49" height="49" viewBox="0 0 49 49" fill="none" xmlns="http://www.w3.org/2000/svg">
<rect x="0.666748" y="0.5" width="48" height="48" rx="24" fill="#F8F2FF"/>
<g clip-path="url(#clip0_4014_7087)">
<path d="M17.8361 15.1673C17.7293 15.0583 17.602 14.9714 17.4616 14.9116C17.3212 14.8518 17.1704 14.8203 17.0178 14.8188C16.8652 14.8173 16.7138 14.8459 16.5723 14.9029C16.4307 14.96 16.3018 15.0444 16.1929 15.1513C14.9612 16.3764 13.9841 17.8333 13.3179 19.4378C12.6517 21.0423 12.3096 22.7627 12.3113 24.5001C12.3095 26.3041 12.6784 28.0892 13.3951 29.7447C14.1118 31.4002 15.161 32.8908 16.4777 34.1241C16.6993 34.3289 16.9921 34.4394 17.2938 34.4319C17.5955 34.4244 17.8825 34.2996 18.0937 34.0841C18.5993 33.5785 18.5369 32.7737 18.0505 32.3081C16.9937 31.3009 16.1527 30.0894 15.5787 28.7471C15.0046 27.4049 14.7095 25.9599 14.7113 24.5001C14.7113 21.5465 15.8969 18.8681 17.8201 16.9193C18.2841 16.4473 18.3321 15.6633 17.8361 15.1673ZM20.6537 17.9881C20.443 17.7712 20.1549 17.6468 19.8526 17.642C19.5503 17.6372 19.2584 17.7524 19.0409 17.9625C18.175 18.8166 17.4877 19.8345 17.0191 20.9569C16.5505 22.0793 16.3099 23.2838 16.3113 24.5001C16.3113 27.2073 17.4793 29.6409 19.3401 31.3241C19.5599 31.5179 19.8458 31.6197 20.1387 31.6083C20.4315 31.597 20.7087 31.4735 20.9129 31.2633C21.4377 30.7385 21.3401 29.9129 20.8473 29.4489C20.172 28.8137 19.6341 28.0469 19.2667 27.1957C18.8993 26.3445 18.7103 25.4271 18.7113 24.5001C18.7113 22.6601 19.4425 20.9897 20.6313 19.7641C21.0889 19.2937 21.1641 18.4969 20.6537 17.9881ZM29.5689 17.9865C29.7796 17.7696 30.0677 17.6452 30.37 17.6404C30.6723 17.6356 30.9642 17.7508 31.1817 17.9609C32.0478 18.8152 32.7352 19.8334 33.2038 20.9561C33.6724 22.0788 33.9129 23.2835 33.9113 24.5001C33.9113 27.2073 32.7433 29.6409 30.8825 31.3241C30.6627 31.5179 30.3767 31.6197 30.0839 31.6083C29.7911 31.597 29.5139 31.4735 29.3097 31.2633C28.7849 30.7385 28.8825 29.9129 29.3753 29.4489C30.0506 28.8137 30.5885 28.0469 30.9559 27.1957C31.3233 26.3445 31.5123 25.4271 31.5113 24.5001C31.5113 22.6601 30.7801 20.9897 29.5913 19.7641C29.1337 19.2937 29.0585 18.4953 29.5689 17.9865ZM32.3865 15.1673C32.4933 15.0583 32.6206 14.9714 32.761 14.9116C32.9014 14.8518 33.0522 14.8203 33.2048 14.8188C33.3574 14.8173 33.5088 14.8459 33.6503 14.9029C33.7918 14.96 33.9208 15.0444 34.0297 15.1513C35.2614 16.3764 36.2385 17.8333 36.9047 19.4378C37.5709 21.0423 37.913 22.7627 37.9113 24.5001C37.9131 26.3041 37.5442 28.0892 36.8275 29.7447C36.1108 31.4002 35.0616 32.8908 33.7449 34.1241C33.5233 34.3289 33.2305 34.4394 32.9288 34.4319C32.627 34.4244 32.3401 34.2996 32.1289 34.0841C31.6233 33.5785 31.6857 32.7737 32.1737 32.3081C33.2302 31.3008 34.0709 30.0892 34.6446 28.7469C35.2184 27.4047 35.5132 25.9598 35.5113 24.5001C35.5113 21.5465 34.3257 18.8681 32.4025 16.9193C31.9385 16.4473 31.8905 15.6633 32.3865 15.1673ZM25.1113 22.1001C24.4748 22.1001 23.8643 22.3529 23.4142 22.803C22.9641 23.2531 22.7113 23.8635 22.7113 24.5001C22.7113 25.1366 22.9641 25.747 23.4142 26.1971C23.8643 26.6472 24.4748 26.9001 25.1113 26.9001C25.7478 26.9001 26.3583 26.6472 26.8083 26.1971C27.2584 25.747 27.5113 25.1366 27.5113 24.5001C27.5113 23.8635 27.2584 23.2531 26.8083 22.803C26.3583 22.3529 25.7478 22.1001 25.1113 22.1001Z" fill="#1E043C"/>
</g>
<defs>
<clipPath id="clip0_4014_7087">
<rect width="26.6667" height="20" fill="white" transform="translate(11.3334 14.5)"/>
</clipPath>
</defs>
</svg>
