<svg width="49" height="49" viewBox="0 0 49 49" fill="none" xmlns="http://www.w3.org/2000/svg">
<rect x="0.5" y="0.5" width="48" height="48" rx="24" fill="#E5FFF3"/>
<g clip-path="url(#clip0_4014_7084)">
<path d="M12.5 30.5V18.5C12.5 17.7044 12.8161 16.9413 13.3787 16.3787C13.9413 15.8161 14.7044 15.5 15.5 15.5H33.5C34.2956 15.5 35.0587 15.8161 35.6213 16.3787C36.1839 16.9413 36.5 17.7044 36.5 18.5V30.5C36.5 31.2956 36.1839 32.0587 35.6213 32.6213C35.0587 33.1839 34.2956 33.5 33.5 33.5H15.5C14.7044 33.5 13.9413 33.1839 13.3787 32.6213C12.8161 32.0587 12.5 31.2956 12.5 30.5ZM22.685 20.1395C22.5729 20.0597 22.4409 20.0122 22.3036 20.0024C22.1663 19.9925 22.0289 20.0207 21.9065 20.0837C21.7841 20.1468 21.6815 20.2423 21.6098 20.3598C21.5381 20.4773 21.5001 20.6123 21.5 20.75V28.25C21.5001 28.3877 21.5381 28.5227 21.6098 28.6402C21.6815 28.7577 21.7841 28.8532 21.9065 28.9163C22.0289 28.9793 22.1663 29.0075 22.3036 28.9976C22.4409 28.9878 22.5729 28.9403 22.685 28.8605L27.935 25.1105C28.0322 25.0411 28.1115 24.9495 28.1661 24.8433C28.2208 24.7372 28.2494 24.6194 28.2494 24.5C28.2494 24.3806 28.2208 24.2628 28.1661 24.1567C28.1115 24.0505 28.0322 23.9589 27.935 23.8895L22.685 20.1395Z" fill="#00C968"/>
</g>
<defs>
<clipPath id="clip0_4014_7084">
<rect width="24" height="24" fill="white" transform="translate(12.5 12.5)"/>
</clipPath>
</defs>
</svg>
